HIERARCHY
ROOT joint_0
{
	OFFSET 0.000000 0.000000 0.000000
	CHANNELS 6 Xposition Yposition Zposition Zrotation Yrotation Xrotation 
	JOINT joint_1
	{
		OFFSET 0.000000 0.000000 0.000000
		CHANNELS 3 Zrotation Yrotation Xrotation
		JOINT joint_2
		{
			OFFSET 3.811170 -8.520760 0.839290
			CHANNELS 3 Zrotation Yrotation Xrotation
			JOINT joint_3
			{
				OFFSET 2.562200 -7.039590 0.000000
				CHANNELS 3 Zrotation Yrotation Xrotation
				JOINT joint_4
				{
					OFFSET 0.157640 -0.433110 2.322550
					CHANNELS 3 Zrotation Yrotation Xrotation
					End Site
					{
						OFFSET 0.000000 0.000000 0.000000
					}
				}
			}
		}
	}
	JOINT joint_5
	{
		OFFSET 0.000000 0.000000 0.000000
		CHANNELS 3 Zrotation Yrotation Xrotation
		JOINT joint_6
		{
			OFFSET -3.848050 -8.780180 0.839290
			CHANNELS 3 Zrotation Yrotation Xrotation
			JOINT joint_7
			{
				OFFSET -2.568260 -7.056230 0.000000
				CHANNELS 3 Zrotation Yrotation Xrotation
				JOINT joint_8
				{
					OFFSET -0.164730 -0.452590 2.363150
					CHANNELS 3 Zrotation Yrotation Xrotation
					End Site
					{
						OFFSET 0.000000 0.000000 0.000000
					}
				}
			}
		}
	}
	JOINT joint_9
	{
		OFFSET 0.028270 2.035590 -0.193380
		CHANNELS 3 Zrotation Yrotation Xrotation
		JOINT joint_10
		{
			OFFSET 0.056720 2.048850 -0.042750
			CHANNELS 3 Zrotation Yrotation Xrotation
			JOINT joint_11
			{
				OFFSET -0.054170 1.746240 0.172020
				CHANNELS 3 Zrotation Yrotation Xrotation
				JOINT joint_12
				{
					OFFSET 0.104070 1.761360 -0.123970
					CHANNELS 3 Zrotation Yrotation Xrotation
					End Site
					{
						OFFSET 0.000000 0.000000 0.000000
					}
				}
			}
			JOINT joint_13
			{
				OFFSET 3.362410 1.200890 -0.311210
				CHANNELS 3 Zrotation Yrotation Xrotation
				JOINT joint_14
				{
					OFFSET 4.983000 -0.000000 -0.000000
					CHANNELS 3 Zrotation Yrotation Xrotation
					JOINT joint_15
					{
						OFFSET 3.483560 -0.000000 -0.000000
						CHANNELS 3 Zrotation Yrotation Xrotation
						JOINT joint_16
						{
							OFFSET 0.715260 -0.000000 -0.000000
							CHANNELS 3 Zrotation Yrotation Xrotation
							End Site
							{
								OFFSET 0.000000 0.000000 0.000000
							}
						}
					}
				}
			}
			JOINT joint_17
			{
				OFFSET -3.136600 1.374050 -0.404650
				CHANNELS 3 Zrotation Yrotation Xrotation
				JOINT joint_18
				{
					OFFSET -5.241900 -0.000000 -0.000000
					CHANNELS 3 Zrotation Yrotation Xrotation
					JOINT joint_19
					{
						OFFSET -3.444170 -0.000000 -0.000000
						CHANNELS 3 Zrotation Yrotation Xrotation
						JOINT joint_20
						{
							OFFSET -0.622530 -0.000000 -0.000000
							CHANNELS 3 Zrotation Yrotation Xrotation
							End Site
							{
								OFFSET 0.000000 0.000000 0.000000
							}
						}
					}
				}
			}
		}
	}
}
MOTION
Frames: 15
Frame Time: 0.031667
-2.459858 14.507683 5.742495 170.276443 -42.221558 178.379807 -34.647400 -28.056423 -28.688154 -11.929240 10.168366 29.538714 -5.161239 2.879162 -20.060181 0.554618 -0.936431 0.724474 -9.974786 -1.819757 13.684585 18.049137 2.507775 -8.485141 -12.587253 -2.505062 -69.702023 1.011316 -0.271240 0.355190 2.097636 3.764724 -1.352759 -1.800938 0.091021 -2.479060 4.011030 2.186183 0.881864 -1.907488 2.183494 7.432763 -66.191192 -2.268459 -1.040101 14.114346 -48.242979 3.614118 2.969114 4.250860 1.254005 -6.444318 -0.599472 0.632406 110.263447 12.905113 50.955246 -100.414926 78.685446 -43.326938 2.536460 -4.532267 2.374309 7.875889 -0.677849 0.666289 
-2.618448 14.527208 5.658350 170.375656 -37.557163 178.634201 -31.863900 -25.214815 -32.767250 -12.001427 10.753239 30.414264 -1.649085 1.885394 -12.374612 0.614609 -1.069818 0.465565 -10.138296 -2.847191 13.933305 18.053488 2.298467 -8.259550 -12.574333 -2.243384 -68.854390 1.055241 -0.225124 0.213364 1.679709 3.808701 -1.189742 -2.166055 0.237144 -2.334805 4.113913 2.020399 0.569862 -1.694930 2.189687 7.338236 -64.776184 -1.665838 -1.132834 14.166988 -48.944561 3.477946 2.790937 4.224723 1.669470 -6.421627 -0.614132 0.654107 109.817446 13.465731 51.525849 -99.684186 78.728152 -42.265469 2.782291 -4.636522 2.092749 7.913612 -0.697774 0.686852 
-2.764054 14.545231 5.564871 170.413406 -32.941769 178.892181 -29.906781 -22.319205 -36.211056 -12.155416 11.252611 31.052011 0.785859 0.476677 -7.411087 0.655347 -1.232013 0.069184 -10.444595 -3.597710 14.091820 18.217132 2.180173 -8.218927 -12.611416 -2.204741 -68.382322 1.089076 -0.218204 0.208584 1.390064 3.910236 -0.895757 -2.394970 0.346204 -2.224928 4.017231 1.779275 0.458780 -1.489463 2.176383 7.215198 -63.369557 -1.194617 -1.142249 14.335917 -49.840906 3.129445 2.609337 4.328078 1.810412 -6.408756 -0.617914 0.663443 109.316612 13.907150 51.802253 -98.831459 78.708685 -41.417994 2.910868 -4.710112 1.972320 7.935219 -0.704850 0.694719 
-2.906213 14.562422 5.467940 170.488632 -28.315804 179.197021 -28.274239 -19.473621 -39.046506 -12.235542 11.682510 31.517088 2.406904 -1.320474 -4.657774 0.675705 -1.290197 -0.075758 -10.971780 -4.152164 14.158998 18.367947 2.123117 -8.632926 -12.580209 -2.328934 -67.896663 1.094217 -0.152318 0.046481 1.174160 4.043914 -0.698177 -2.716847 0.581765 -2.172376 3.833641 1.605326 0.368820 -1.227639 2.100242 6.957663 -62.070270 -0.976859 -1.112691 14.400586 -50.772787 2.526090 2.419007 4.409163 1.827985 -6.403485 -0.616310 0.665320 108.818318 14.429860 51.676720 -98.886969 78.751318 -40.913004 3.036863 -4.832302 1.972085 7.948192 -0.705076 0.695425 
-3.037075 14.576888 5.359700 170.548111 -23.823706 179.467407 -26.824792 -16.587491 -41.326656 -12.234787 11.948366 31.727586 3.526421 -3.013745 -3.390115 0.679831 -1.231441 0.093858 -11.380950 -4.423209 14.100076 18.539768 2.184999 -9.114616 -12.427328 -2.890989 -67.512249 1.083719 -0.106576 -0.057733 1.143754 4.244696 -0.716602 -2.969866 0.743670 -2.051406 3.510577 1.363383 0.559913 -0.941388 1.964733 6.642226 -60.796401 -0.946314 -1.168596 14.648594 -51.889855 2.120148 2.287455 4.618226 1.903583 -6.401276 -0.616297 0.665147 108.328956 14.875975 51.481771 -100.287274 78.878088 -40.785262 3.116621 -4.963789 2.231408 7.959610 -0.704641 0.694627 
-3.164959 14.590025 5.247998 170.648514 -19.354546 179.764572 -25.501273 -14.194093 -42.894211 -12.229851 12.215649 31.838165 4.286626 -4.326038 -2.911311 0.689215 -1.238799 0.081957 -11.867065 -4.691004 13.928147 18.654495 2.249403 -9.728634 -12.232814 -3.629689 -67.191403 1.050872 -0.132077 0.023602 1.233976 4.238809 -0.801241 -3.217051 0.992886 -2.104567 3.121269 1.160893 0.596026 -0.646270 1.807425 6.220567 -59.643555 -0.948742 -1.157693 15.263488 -53.049501 1.610987 2.194313 4.731387 1.971134 -6.400430 -0.616506 0.665027 107.734307 15.191641 51.019393 -101.236439 79.001373 -39.993322 3.167065 -4.991438 2.465753 7.971579 -0.704575 0.693952 
-3.282469 14.598531 5.124234 170.778320 -15.053505 -179.976471 -24.295045 -11.912786 -43.949448 -12.241661 12.361218 31.916616 4.882650 -5.654956 -2.720011 0.695119 -1.234722 0.095085 -12.351019 -4.969117 13.465094 18.801557 2.326772 -10.295314 -11.814065 -4.668775 -66.609648 1.012451 -0.158646 0.104748 1.297274 4.233879 -0.768356 -3.432939 1.104852 -2.187794 2.727789 0.862473 0.472490 -0.336739 1.598489 5.772859 -58.533596 -1.150699 -1.112945 15.949968 -54.192146 1.023230 2.032951 4.888636 2.021274 -6.401988 -0.614329 0.661553 107.140546 15.514199 50.385856 -101.460499 79.029221 -39.483282 3.237577 -5.008748 2.643834 7.978577 -0.702153 0.690589 
-3.397201 14.605514 4.997565 170.957077 -10.781870 -179.693497 -23.366271 -9.868825 -44.726698 -12.288129 12.585601 32.020756 5.218204 -6.883922 -2.654699 0.692562 -1.237239 0.061777 -12.659382 -5.196356 13.032715 19.024862 2.377122 -10.856838 -11.211866 -5.843754 -65.705199 0.967714 -0.170995 0.154533 1.299679 4.261777 -0.821803 -3.638187 1.223674 -2.309143 2.348566 0.565028 0.397065 -0.011015 1.396023 5.443919 -57.604676 -1.175906 -1.117432 16.723034 -55.299100 0.395404 1.914782 4.962553 1.928074 -6.404738 -0.610126 0.654036 106.612476 15.631243 49.676894 -100.861521 79.042151 -38.574505 3.302503 -5.061173 2.633046 7.976376 -0.696347 0.683426 
-3.501622 14.606843 4.860115 171.189468 -6.673385 -179.448105 -22.285425 -8.159848 -45.381592 -12.375288 12.787024 32.066629 5.442400 -7.995440 -2.781721 0.706272 -1.203154 0.153433 -12.991202 -5.501481 12.528513 19.282409 2.421100 -11.523930 -10.502939 -7.116985 -64.597947 0.908265 -0.198468 0.232940 1.393950 4.211944 -0.971701 -3.798360 1.304133 -2.422745 2.013572 0.448031 0.482603 0.249765 1.298212 5.172619 -56.605462 -1.424112 -1.005189 17.868502 -56.424595 -0.334477 1.832895 5.022448 1.802597 -6.403311 -0.609791 0.650495 106.031850 15.852924 48.922986 -100.750767 79.048521 -37.818280 3.363382 -5.029107 2.666078 7.977764 -0.693909 0.679774 
-3.603539 14.607029 4.720396 171.478287 -2.584581 -179.173004 -21.524997 -6.713908 -45.672506 -12.451257 13.040306 32.093717 5.616570 -9.183965 -2.979942 0.716369 -1.028540 0.605355 -13.264635 -5.788116 11.933135 19.531501 2.522180 -12.286640 -9.714027 -8.582315 -63.270932 0.841608 -0.178996 0.191231 1.477476 4.219730 -1.170924 -3.831328 1.373187 -2.562700 1.701212 0.263422 0.488710 0.514647 1.150238 4.911252 -55.845221 -1.645742 -0.886025 19.047126 -57.393849 -0.897029 1.790050 5.028722 1.696605 -6.404658 -0.606458 0.643611 105.589722 16.204607 48.258628 -100.559048 79.044910 -36.913825 3.375899 -5.024853 2.684089 7.972422 -0.687946 0.672724 
-3.695530 14.602684 4.571686 171.832626 1.375654 -178.939560 -20.689542 -5.457958 -46.109607 -12.534231 13.261926 32.158032 5.786411 -10.381242 -3.265403 0.739567 -0.848640 1.125795 -13.409511 -6.144905 11.255206 19.832484 2.483504 -12.903018 -8.768793 -10.018870 -61.606232 0.797322 -0.152691 0.114624 1.525259 4.140259 -1.344596 -3.847375 1.397663 -2.646872 1.321321 0.134590 0.685149 0.787110 1.027618 4.763254 -55.105720 -2.003250 -0.813308 20.242674 -58.311042 -1.476873 1.733103 4.995181 1.591081 -6.396638 -0.612599 0.646199 105.219206 16.414220 47.782599 -98.974703 78.982929 -35.592928 3.425101 -5.008050 2.710125 7.977775 -0.691628 0.675228 
-3.785338 14.597994 4.421126 172.246323 5.330235 -178.664795 -20.090275 -4.388330 -46.277004 -12.745530 13.524867 32.227824 5.935322 -11.362701 -3.765612 0.751659 -0.711171 1.486488 -13.595378 -6.421574 10.589091 20.216179 2.514172 -13.540005 -7.705988 -11.302168 -59.611535 0.770593 -0.136277 0.079370 1.445953 4.035274 -1.585169 -3.775482 1.470756 -2.761557 0.977783 -0.023851 0.709499 1.003567 0.911258 4.602154 -54.547515 -2.215629 -1.014386 21.500626 -59.247225 -2.118889 1.620280 4.952327 1.445537 -6.396805 -0.613303 0.641908 104.911096 16.790022 47.389511 -97.314832 78.901099 -34.268436 3.475111 -4.982471 2.664547 7.975055 -0.688897 0.671109 
-3.865871 14.591835 4.262709 172.722534 9.200757 -178.432083 -19.597125 -3.283884 -46.238546 -12.841360 13.776636 32.165788 6.045073 -12.202183 -4.517249 0.765340 -0.536286 1.944732 -13.759317 -6.764291 10.124741 20.437971 2.476722 -14.176507 -6.521564 -12.426649 -57.444514 0.753774 -0.133110 0.079142 1.329327 3.950343 -1.721293 -3.664024 1.480300 -2.850652 0.590888 -0.172857 0.883366 1.185706 0.768980 4.464851 -54.062650 -2.692062 -1.206952 22.791280 -60.013300 -2.648798 1.555625 4.919671 1.350221 -6.398188 -0.616250 0.638875 104.707234 17.261047 47.120194 -95.662654 78.846099 -32.753855 3.489564 -4.973461 2.453679 7.973485 -0.687948 0.668542 
-3.944309 14.586116 4.102765 173.253860 13.079476 -178.145386 -19.082731 -2.396369 -46.134262 -13.025260 14.002546 32.159824 6.189120 -12.815384 -5.376253 0.781676 -0.448871 2.160986 -13.825195 -7.158863 9.563743 20.750312 2.357002 -14.432055 -5.336583 -13.404283 -55.129545 0.730987 -0.070629 -0.085743 1.189107 3.877284 -1.893107 -3.521704 1.545199 -2.981659 0.197292 -0.386167 1.011679 1.365129 0.602595 4.368749 -53.616767 -3.129059 -1.575824 24.156466 -60.828816 -3.399565 1.432543 4.879124 1.265231 -6.398881 -0.616568 0.634105 104.587143 17.647375 46.869659 -92.543509 78.695029 -31.103006 3.523559 -4.935573 2.127166 7.969998 -0.685200 0.664283 
-4.013194 14.582400 3.935857 173.818298 16.912605 -177.895737 -18.547152 -1.570255 -45.825618 -13.169359 14.258787 32.097207 6.289028 -13.223510 -6.397941 0.797890 -0.424961 2.221358 -13.863859 -7.647086 8.932646 21.026278 2.096106 -14.406859 -4.246662 -14.270499 -52.947528 0.708643 0.079836 -0.502479 1.015815 3.763108 -2.037734 -3.450161 1.530966 -3.085063 -0.149570 -0.516679 1.144007 1.489907 0.474245 4.239548 -53.147272 -3.577522 -2.054417 25.839835 -61.755948 -4.199280 1.287723 4.789481 1.309275 -6.396546 -0.621643 0.633412 104.493667 17.848186 46.629773 -90.500287 78.628269 -29.515661 3.533259 -4.862118 1.790314 7.972425 -0.686517 0.663912 
